<mxfile host="app.diagrams.net" agent="Mozilla/5.0 (Windows NT 10.0; Win64; x64) AppleWebKit/537.36 (KHTML, like Gecko) Chrome/132.0.0.0 Safari/537.36 Edg/132.0.0.0" version="26.0.10">
  <diagram name="Page-1" id="wx6Wx51T-HRnJOHuFUpR">
    <mxGraphModel dx="1029" dy="463" grid="1" gridSize="10" guides="1" tooltips="1" connect="1" arrows="1" fold="1" page="1" pageScale="1" pageWidth="827" pageHeight="1169" math="0" shadow="0">
      <root>
        <mxCell id="0" />
        <mxCell id="1" parent="0" />
        <mxCell id="EBjdS0SXRLQLnNG340Il-5" value="&lt;div style=&quot;text-align: left;&quot;&gt;&lt;span style=&quot;background-color: transparent; color: light-dark(rgb(0, 0, 0), rgb(255, 255, 255));&quot;&gt;7 données météorologiques&lt;/span&gt;&lt;/div&gt;&lt;div style=&quot;text-align: left;&quot;&gt;8 état de la piste&lt;/div&gt;" style="text;html=1;align=center;verticalAlign=middle;whiteSpace=wrap;rounded=0;rotation=0;" parent="1" vertex="1">
          <mxGeometry x="640" y="470" width="160" height="36.82" as="geometry" />
        </mxCell>
        <mxCell id="EBjdS0SXRLQLnNG340Il-7" value="" style="endArrow=classic;html=1;rounded=0;exitX=0.25;exitY=1;exitDx=0;exitDy=0;entryX=0.75;entryY=1;entryDx=0;entryDy=0;" parent="1" source="EBjdS0SXRLQLnNG340Il-5" target="EBjdS0SXRLQLnNG340Il-5" edge="1">
          <mxGeometry width="50" height="50" relative="1" as="geometry">
            <mxPoint x="620" y="706.8199999999999" as="sourcePoint" />
            <mxPoint x="670" y="656.8199999999999" as="targetPoint" />
          </mxGeometry>
        </mxCell>
        <mxCell id="EBjdS0SXRLQLnNG340Il-8" value="IHM" style="rounded=0;whiteSpace=wrap;html=1;" parent="1" vertex="1">
          <mxGeometry x="380" y="500.90999999999997" width="260" height="30" as="geometry" />
        </mxCell>
        <mxCell id="EBjdS0SXRLQLnNG340Il-9" style="edgeStyle=orthogonalEdgeStyle;rounded=0;orthogonalLoop=1;jettySize=auto;html=1;exitX=0.5;exitY=0.5;exitDx=0;exitDy=0;exitPerimeter=0;entryX=0;entryY=0.5;entryDx=0;entryDy=0;" parent="1" source="EBjdS0SXRLQLnNG340Il-10" target="EBjdS0SXRLQLnNG340Il-8" edge="1">
          <mxGeometry relative="1" as="geometry" />
        </mxCell>
        <mxCell id="EBjdS0SXRLQLnNG340Il-10" value="Base De Données" style="shape=umlActor;verticalLabelPosition=bottom;verticalAlign=top;html=1;outlineConnect=0;" parent="1" vertex="1">
          <mxGeometry x="190" y="486.82" width="30" height="60" as="geometry" />
        </mxCell>
        <mxCell id="EBjdS0SXRLQLnNG340Il-18" value="Opérateur" style="shape=umlActor;verticalLabelPosition=bottom;verticalAlign=top;html=1;outlineConnect=0;" parent="1" vertex="1">
          <mxGeometry x="797" y="486.82" width="30" height="60" as="geometry" />
        </mxCell>
        <mxCell id="EBjdS0SXRLQLnNG340Il-20" value="" style="endArrow=classic;html=1;rounded=0;entryX=0.5;entryY=0.5;entryDx=0;entryDy=0;entryPerimeter=0;exitX=1;exitY=0.5;exitDx=0;exitDy=0;" parent="1" source="EBjdS0SXRLQLnNG340Il-8" target="EBjdS0SXRLQLnNG340Il-18" edge="1">
          <mxGeometry width="50" height="50" relative="1" as="geometry">
            <mxPoint x="530" y="659.5" as="sourcePoint" />
            <mxPoint x="602" y="659.5" as="targetPoint" />
          </mxGeometry>
        </mxCell>
        <mxCell id="KJHO_WZzniwEZ0wPX_X9-4" value="&lt;div style=&quot;text-align: left;&quot;&gt;&lt;span style=&quot;background-color: transparent; color: light-dark(rgb(0, 0, 0), rgb(255, 255, 255));&quot;&gt;7 données météorologiques&lt;/span&gt;&lt;/div&gt;&lt;div style=&quot;text-align: left;&quot;&gt;8 état de la piste&lt;/div&gt;" style="text;html=1;align=center;verticalAlign=middle;whiteSpace=wrap;rounded=0;rotation=0;" vertex="1" parent="1">
          <mxGeometry x="220" y="463.09" width="160" height="36.82" as="geometry" />
        </mxCell>
        <mxCell id="KJHO_WZzniwEZ0wPX_X9-5" value="" style="endArrow=classic;html=1;rounded=0;exitX=0.25;exitY=1;exitDx=0;exitDy=0;entryX=0.75;entryY=1;entryDx=0;entryDy=0;" edge="1" parent="1" source="KJHO_WZzniwEZ0wPX_X9-4" target="KJHO_WZzniwEZ0wPX_X9-4">
          <mxGeometry width="50" height="50" relative="1" as="geometry">
            <mxPoint x="200" y="699.91" as="sourcePoint" />
            <mxPoint x="250" y="649.91" as="targetPoint" />
          </mxGeometry>
        </mxCell>
      </root>
    </mxGraphModel>
  </diagram>
</mxfile>
